<?xml version="1.0" encoding="UTF-8" standalone="no"?>
<!-- Created with Inkscape (http://www.inkscape.org/) -->

<svg
   version="1.1"
   id="svg5109"
   xml:space="preserve"
   width="682.66669"
   height="682.66669"
   viewBox="0 0 682.66669 682.66669"
   xmlns="http://www.w3.org/2000/svg"
   xmlns:svg="http://www.w3.org/2000/svg"><defs
     id="defs5113"><clipPath
       clipPathUnits="userSpaceOnUse"
       id="clipPath5123"><path
         d="M 0,512 H 512 V 0 H 0 Z"
         id="path5121" /></clipPath></defs><g
     id="g5115"
     transform="matrix(1.3333333,0,0,-1.3333333,0,682.66667)"><g
       id="g5117"><g
         id="g5119"
         clip-path="url(#clipPath5123)"><g
           id="g5125"
           transform="translate(52.8086,451.4795)"><path
             d="m 0,0 h 406.193 l -20.005,44.602 c -1.077,2.437 -2.181,4.845 -4.845,4.845 H 24.851 c -2.664,0 -3.769,-2.408 -4.846,-4.845 z"
             style="fill:none;stroke:#000000;stroke-width:15;stroke-linecap:round;stroke-linejoin:round;stroke-miterlimit:10;stroke-dasharray:none;stroke-opacity:1"
             id="path5127" /></g><g
           id="g5129"
           transform="translate(164.8203,368.9922)"><path
             d="m 0,0 h 30.716 m -37.177,-13.517 20.714,54.35 c 0.425,1.048 1.898,1.048 2.323,0 l 20.516,-54.35"
             style="fill:none;stroke:#000000;stroke-width:15;stroke-linecap:round;stroke-linejoin:round;stroke-miterlimit:10;stroke-dasharray:none;stroke-opacity:1"
             id="path5131" /></g><g
           id="g5133"
           transform="translate(382.1553,355.3906)"><path
             d="M 0,0 V 55.199 L 37.318,1.133 c 0.709,-0.991 1.446,-0.51 1.446,0.709 l -0.51,53.442"
             style="fill:none;stroke:#000000;stroke-width:15;stroke-linecap:round;stroke-linejoin:round;stroke-miterlimit:10;stroke-dasharray:none;stroke-opacity:1"
             id="path5135" /></g><g
           id="g5137"
           transform="translate(239.8535,410.6182)"><path
             d="m 0,0 v -55.114 c 0.595,-0.114 19.297,0 19.297,0"
             style="fill:none;stroke:#000000;stroke-width:15;stroke-linecap:round;stroke-linejoin:round;stroke-miterlimit:10;stroke-dasharray:none;stroke-opacity:1"
             id="path5139" /></g><g
           id="g5141"
           transform="translate(124.8672,404.9229)"><path
             d="m 0,0 c 0,0 -9.89,8.331 -21.563,4.817 -10.711,-3.23 -12.213,-15.585 -4.45,-20.629 0,0 7.594,-3.4 16.038,-6.517 20.317,-7.482 11.561,-27.118 -4.789,-27.118 -8.188,0 -15.046,3.57 -19.211,8.161"
             style="fill:none;stroke:#000000;stroke-width:15;stroke-linecap:round;stroke-linejoin:round;stroke-miterlimit:10;stroke-dasharray:none;stroke-opacity:1"
             id="path5143" /></g><g
           id="g5145"
           transform="translate(345.4326,383.0469)"><path
             d="M 0,0 C 0,15.16 -12.411,27.571 -27.571,27.571 -42.759,27.571 -55.142,15.16 -55.142,0 c 0,-15.188 12.383,-27.571 27.571,-27.571 C -12.411,-27.571 0,-15.188 0,0 Z"
             style="fill:none;stroke:#000000;stroke-width:15;stroke-linecap:round;stroke-linejoin:round;stroke-miterlimit:10;stroke-dasharray:none;stroke-opacity:1"
             id="path5147" /></g><g
           id="g5149"
           transform="translate(482.0107,383.0469)"><path
             d="M 0,0 H 22.301"
             style="fill:none;stroke:#000000;stroke-width:15;stroke-linecap:round;stroke-linejoin:round;stroke-miterlimit:10;stroke-dasharray:none;stroke-opacity:1"
             id="path5151" /></g><g
           id="g5153"
           transform="translate(482.0107,417.249)"><path
             d="M 0,0 H 22.301"
             style="fill:none;stroke:#000000;stroke-width:15;stroke-linecap:round;stroke-linejoin:round;stroke-miterlimit:10;stroke-dasharray:none;stroke-opacity:1"
             id="path5155" /></g><g
           id="g5157"
           transform="translate(482.0107,348.8164)"><path
             d="M 0,0 H 22.301"
             style="fill:none;stroke:#000000;stroke-width:15;stroke-linecap:round;stroke-linejoin:round;stroke-miterlimit:10;stroke-dasharray:none;stroke-opacity:1"
             id="path5159" /></g><g
           id="g5161"
           transform="translate(7.5,383.0469)"><path
             d="M 0,0 H 22.271"
             style="fill:none;stroke:#000000;stroke-width:15;stroke-linecap:round;stroke-linejoin:round;stroke-miterlimit:10;stroke-dasharray:none;stroke-opacity:1"
             id="path5163" /></g><g
           id="g5165"
           transform="translate(7.5,417.249)"><path
             d="M 0,0 H 22.271"
             style="fill:none;stroke:#000000;stroke-width:15;stroke-linecap:round;stroke-linejoin:round;stroke-miterlimit:10;stroke-dasharray:none;stroke-opacity:1"
             id="path5167" /></g><g
           id="g5169"
           transform="translate(7.5,348.8164)"><path
             d="M 0,0 H 22.271"
             style="fill:none;stroke:#000000;stroke-width:15;stroke-linecap:round;stroke-linejoin:round;stroke-miterlimit:10;stroke-dasharray:none;stroke-opacity:1"
             id="path5171" /></g><g
           id="g5173"
           transform="translate(80.4365,56.0713)"><path
             d="m 0,0 h 136.068 v 179.909 c 0,5.78 -4.732,10.513 -10.512,10.513 H 10.484 C 4.731,190.422 0,185.689 0,179.909 Z"
             style="fill:none;stroke:#000000;stroke-width:15;stroke-linecap:round;stroke-linejoin:round;stroke-miterlimit:10;stroke-dasharray:none;stroke-opacity:1"
             id="path5175" /></g><g
           id="g5177"
           transform="translate(115.2891,146.5781)"><path
             d="M 0,0 V -15.755"
             style="fill:none;stroke:#000000;stroke-width:15;stroke-linecap:round;stroke-linejoin:round;stroke-miterlimit:10;stroke-dasharray:none;stroke-opacity:1"
             id="path5179" /></g><g
           id="g5181"
           transform="translate(284.7939,246.4932)"><path
             d="M 0,0 H 193.108 V -115.67 H 0 c -3.315,0 -6.007,2.04 -6.007,4.563 V -4.562 C -6.007,-2.068 -3.315,0 0,0 Z"
             style="fill:none;stroke:#000000;stroke-width:15;stroke-linecap:round;stroke-linejoin:round;stroke-miterlimit:10;stroke-dasharray:none;stroke-opacity:1"
             id="path5183" /></g><g
           id="g5185"
           transform="translate(331.4346,56.0713)"><path
             d="m 0,0 h -300.841 c -12.383,0 -22.499,-10.116 -22.499,-22.499 v -17.398 c 0,-2.806 2.296,-5.101 5.101,-5.101 h 485.42 c 2.805,0 5.072,2.295 5.072,5.101 v 17.398 C 172.253,-10.116 162.138,0 149.783,0 H 34.626"
             style="fill:none;stroke:#000000;stroke-width:15;stroke-linecap:round;stroke-linejoin:round;stroke-miterlimit:10;stroke-dasharray:none;stroke-opacity:1"
             id="path5187" /></g><g
           id="g5189"
           transform="translate(271.5898,314.5859)"><path
             d="m 0,0 h 223.144 c 5.27,0 9.578,4.307 9.578,9.577 v 117.739 c 0,5.271 -4.308,9.578 -9.578,9.578 h -477.657 c -5.27,0 -9.577,-4.307 -9.577,-9.578 V 9.577 c 0,-5.27 4.307,-9.577 9.577,-9.577 h 219.914"
             style="fill:none;stroke:#000000;stroke-width:15;stroke-linecap:round;stroke-linejoin:round;stroke-miterlimit:10;stroke-dasharray:none;stroke-opacity:1"
             id="path5191" /></g><g
           id="g5193"
           transform="translate(33.9092,56.0713)"><path
             d="m 0,0 v 258.515 m 443.993,0 V 0"
             style="fill:none;stroke:#000000;stroke-width:15;stroke-linecap:round;stroke-linejoin:round;stroke-miterlimit:10;stroke-dasharray:none;stroke-opacity:1"
             id="path5195" /></g></g></g></g></svg>
