<?xml version="1.0" standalone="no"?>
<!DOCTYPE svg PUBLIC "-//W3C//DTD SVG 20010904//EN"
 "http://www.w3.org/TR/2001/REC-SVG-20010904/DTD/svg10.dtd">
<svg version="1.0" xmlns="http://www.w3.org/2000/svg"
 width="140.000000pt" height="140.000000pt" viewBox="0 0 140.000000 140.000000"
 preserveAspectRatio="xMidYMid meet">
<metadata>
Created by potrace 1.14, written by Peter Selinger 2001-2017
</metadata>
<g transform="translate(0.000000,140.000000) scale(0.100000,-0.100000)"
fill="#000000" stroke="none">
<path d="M72 1380 c-18 -11 -41 -34 -52 -52 -20 -32 -20 -51 -20 -631 1 -441
4 -596 12 -591 7 5 9 0 6 -14 -4 -12 -2 -20 3 -16 5 3 10 0 10 -5 1 -6 2 -15
3 -20 0 -6 7 -16 15 -23 10 -10 12 -10 7 0 -6 10 -2 10 18 1 14 -7 23 -16 20
-20 -3 -5 270 -9 605 -9 336 0 610 3 610 8 -1 4 -1 14 1 22 1 11 4 9 10 -5 6
-14 9 -15 9 -5 1 9 14 21 31 27 29 11 42 33 19 33 -5 0 -7 5 -4 10 4 6 11 8
16 5 5 -4 9 229 9 602 0 577 -1 610 -19 639 -40 65 -26 64 -683 64 -574 0
-594 -1 -626 -20z m1026 -527 c-2 -9 -16 -20 -32 -24 -91 -25 -127 -146 -66
-221 17 -20 46 -42 65 -48 19 -6 35 -18 35 -26 0 -21 -47 -8 -90 25 -108 84
-87 240 40 295 45 20 52 20 48 -1z m110 -20 c76 -57 94 -148 47 -229 -34 -58
-135 -106 -135 -64 0 4 11 11 25 14 41 10 94 64 106 108 18 69 -26 145 -98
169 -18 6 -33 17 -33 25 0 20 46 8 88 -23z m-1060 -106 c1 -71 7 -127 12 -127
5 0 11 56 12 127 2 90 7 128 16 131 9 3 12 -27 12 -127 l0 -130 65 -3 c107 -5
81 -23 -37 -26 l-108 -3 0 146 c0 113 3 146 13 143 8 -3 13 -41 15 -131z m240
6 c3 -119 3 -120 33 -149 42 -40 106 -41 146 -1 27 27 28 31 31 152 3 100 7
125 18 125 11 0 14 -23 14 -116 0 -100 -3 -122 -21 -154 -36 -64 -108 -86
-176 -53 -61 29 -73 61 -73 201 0 95 3 123 13 120 8 -3 13 -40 15 -125z m52
14 c0 -122 6 -137 50 -137 44 0 50 15 50 137 0 94 3 113 15 113 12 0 15 -19
15 -114 0 -99 -3 -117 -20 -139 -25 -31 -56 -38 -92 -20 -41 20 -48 42 -48
162 0 92 3 111 15 111 12 0 15 -19 15 -113z m470 106 c0 -3 -29 -62 -65 -130
-36 -68 -64 -123 -62 -124 1 0 31 -1 66 -2 41 -1 66 -7 69 -14 3 -10 -19 -13
-87 -13 -95 0 -102 4 -77 43 25 40 106 200 106 208 0 5 -38 9 -85 9 -78 0 -96
5 -78 23 8 9 213 9 213 0z m190 -56 c0 -8 -11 -19 -24 -25 -14 -6 -33 -23 -42
-37 -24 -37 -5 -98 36 -117 28 -12 42 -38 20 -38 -46 0 -108 86 -96 134 8 31
44 76 70 86 30 12 36 12 36 -3z m68 -1 c30 -16 62 -65 62 -94 0 -56 -53 -122
-100 -122 -22 0 -8 26 23 40 43 20 57 67 34 115 -10 21 -26 37 -42 41 -14 3
-25 12 -25 20 0 17 18 17 48 0z m-407 -118 l-68 -123 114 -3 c91 -2 113 -5
113 -17 0 -13 -23 -15 -135 -15 -85 0 -135 4 -135 10 0 6 10 27 23 48 13 20
42 72 65 114 l42 77 -42 3 c-23 2 -43 9 -46 16 -3 9 15 12 67 12 l70 0 -68
-122z m-433 -140 c-3 -9 -36 -14 -106 -16 -86 -2 -102 0 -102 13 0 12 17 15
106 15 80 0 105 -3 102 -12z"/>
</g>
</svg>
