<svg xmlns="http://www.w3.org/2000/svg" height="512pt" viewBox="0 0 512.001 512" width="512pt"><path d="m173.859375 289.429688c-3.839844-1.5625-8.199219.25-9.757813 4.089843-.304687.703125-7.734374 17.273438-32.703124 17.273438-25.253907 0-34.265626-16.863281-34.703126-17.71875-1.835937-3.691407-6.304687-5.210938-10.007812-3.402344-3.722656 1.820313-5.265625 6.308594-3.449219 10.03125.519531 1.0625 13.140625 26.089844 48.160157 26.089844 35.378906 0 46.128906-25.472657 46.570312-26.558594 1.558594-3.835937-.273438-8.246094-4.109375-9.804687zm0 0" fill="#0d6efd"/><path d="m103.820312 255.609375c1.125.605469 2.339844.890625 3.535157.890625 2.652343 0 5.226562-1.410156 6.585937-3.902344 1.988282-3.632812.65625-8.1875-2.980468-10.175781-.621094-.34375-15.449219-8.25-34.914063-1.695313-3.929687 1.320313-6.039063 5.574219-4.71875 9.5 1.324219 3.925782 5.578125 6.03125 9.503906 4.714844 12.941407-4.359375 22.46875.402344 22.988281.667969zm0 0" fill="#0d6efd"/><path d="m184.957031 240.726562c-19.472656-6.554687-34.296875 1.351563-34.917969 1.695313-3.632812 1.984375-5.003906 6.5625-3.015624 10.195313 1.367187 2.496093 3.929687 3.914062 6.578124 3.914062 1.207032 0 2.429688-.292969 3.570313-.914062.398437-.207032 9.96875-5.0625 23-.675782 3.925781 1.316406 8.179687-.789062 9.5-4.714844 1.320313-3.925781-.789063-8.179687-4.714844-9.5zm0 0" fill="#0d6efd"/><path d="m286.324219 94.4375c-12.269531 0-22.328125 9.40625-22.898438 21.414062-.289062 6.089844 1.902344 11.804688 5.726563 16.085938-3.824219 4.28125-6.015625 9.996094-5.726563 16.085938.398438 8.402343 5.445313 15.535156 12.648438 19.058593-1.644531 3.144531-2.5 6.742188-2.488281 10.671875.03125 9.308594 6.050781 17.265625 14.449218 20.332032-1.316406 2.742187-2.039062 5.777343-2.109375 9.035156-.128906 5.808594 2.078125 11.335937 6.214844 15.5625 4.199219 4.292968 10.03125 6.753906 16 6.753906h106.25c17.953125 0 32.554687-14.605469 32.554687-32.558594v-51.164062c0-17-17.1875-32.621094-35.757812-46.972656-9.285156-7.171876-16.484375-16.691407-20.816406-27.53125l-12.511719-31.285157c-4.148437-10.765625-18.542969-7.039062-23.285156-5.8125-5.335938 1.382813-9.765625 4.828125-12.480469 9.707031-4.171875 7.503907-4.289062 17.753907-.355469 30.464844l4.171875 16.105469c-9.851562 2.867187-22.523437 3.789063-31.679687 4.050781h-27.90625zm28.21875 15c10.660156-.296875 25.84375-1.453125 37.628906-5.28125 6.617187-2.148438 10.4375-9.101562 8.695313-15.828125l-4.652344-17.976563c-.03125-.121093-.066406-.238281-.101563-.355468-2.101562-6.734375-4.488281-19.625 2.222657-21.363282 3.273437-.847656 5.25-1.113281 6.378906-1.179687l11.726562 29.328125c5.328125 13.324219 14.167969 25.023438 25.570313 33.832031 8.1875 6.324219 29.933593 23.128907 29.933593 35.101563v51.167968c0 9.679688-7.875 17.558594-17.554687 17.558594h-106.25c-3.835937 0-7.304687-3.132812-7.21875-6.988281.027344-1.257813.109375-5.09375 6.6875-7.507813 3.644531-1.34375 5.792969-5.089843 5.113281-8.90625-.683594-3.824218-3.996094-6.597656-7.878906-6.597656h-9.144531c-3.777344 0-7.113281-3.148437-7.113281-6.738281 0-3.605469 2.179687-8.269531 7.34375-8.269531.046874 0 10.855468.007812 10.855468.007812 4.144532 0 7.5-3.359375 7.5-7.5 0-4.144531-3.355468-7.5-7.5-7.5-7.472656 0-12.871094 0-20.460937 0-4.175781 0-7.726563-3.195312-7.914063-7.125-.179687-3.765625 2.464844-7.097656 6.148438-7.757812 1.308594-.234375 3.261718-.054688 19.636718-.117188 4.144532 0 7.5-3.359375 7.5-7.5 0-4.144531-3.355468-7.5-7.5-7.5h-18.292968c-4.355469 0-7.691406-3.664062-7.492188-7.875.1875-3.929687 3.738282-7.125 7.914063-7.125h28.011719c.070312-.003906.140624-.003906.207031-.003906zm0 0" fill="#0d6efd"/><path d="m435.238281 0h-115.238281c-4.140625 0-7.5 3.359375-7.5 7.5 0 4.144531 3.359375 7.5 7.5 7.5h115.238281c34.054688 0 61.761719 27.621094 61.761719 61.570312v166.332032c0 33.945312-27.707031 61.566406-61.761719 61.566406h-86.738281c-4.140625 0-7.5 3.359375-7.5 7.5 0 14.199219-3.21875 32.15625-26.820312 38.664062 8.195312-12.671874 7.410156-30.132812 4.851562-40.46875-.832031-3.34375-3.835938-5.695312-7.28125-5.695312h-87.84375c1.753906-5.855469 2.980469-11.9375 3.605469-18.191406 21.632812 3.90625 33.488281-19.121094 33.488281-42.277344 0-16.15625-5.53125-28.445312-14.945312-34.371094 4.554687-9.664062 6.492187-22.558594-1.265626-37.703125 1.148438-36.164062-13.609374-54.871093-26.332031-64.230469-10.472656-7.703124-21.222656-10.375-26.367187-11.265624-4.175782-4.085938-14.316406-12.226563-32.089844-16.558594v-3.300782c0-33.949218 27.703125-61.570312 61.761719-61.570312h66.238281c4.140625 0 7.5-3.355469 7.5-7.5 0-4.140625-3.359375-7.5-7.5-7.5h-66.238281c-42.328125 0-76.761719 34.351562-76.761719 76.570312v.871094c-12.808594-1.117187-28.40625-.230468-47.164062 4.289063-11.808594 2.847656-22.578126 6.527343-32.003907 10.945312-3.753906 1.757813-5.367187 6.222657-3.609375 9.972657 1.753906 3.753906 6.21875 5.367187 9.972656 3.609374 8.515626-3.988281 18.324219-7.335937 29.15625-9.945312 20.679688-4.980469 36.734376-5.136719 48.910157-3.191406.597656.1875 1.230469.289062 1.886719.320312 21.148437 3.875 29.863281 14.054688 30.390624 14.691406 1.300782 1.648438 3.230469 2.679688 5.328126 2.835938.105468.011719 11.136718 1.039062 21.699218 8.808594 14.5625 10.710937 21.34375 28.722656 20.15625 53.53125-.066406 1.402344.261719 2.796875.949219 4.023437 6.128906 10.945313 5.773437 21.039063-1.078125 30.867188-4.796875 6.875-11.289062 11.304687-13.042969 12.425781-.765625.242188-2.667969.707031-4.167969.011719-1.695312-.789063-2.765624-3.144531-3.363281-4.988281-4.726562-14.570313-11.074219-20.433594-16.671875-25.605469-5.554687-5.132813-10.351562-9.566407-14.71875-23.984375-.871094-2.875-3.375-4.957032-6.359375-5.28125-2.992187-.332032-5.882812 1.160156-7.355469 3.78125-2.859374 5.089844-11.570312 20.570312-48.632812 19.242187-31.066406-1.132812-56.585938 9.863281-66.609375 28.667969-2.796875 5.242188-5.234375 7.105469-6.34375 7.566406-24.6875-14.425781-14.5625-36.464844-13.320313-38.933594.839844-1.628906 1.054688-3.503906.605469-5.28125-.074219-.289062-7.007812-29.164062 18.054688-53.226562 2.988281-2.867188 3.085937-7.617188.21875-10.605469-2.871094-2.988281-7.617188-3.085937-10.605469-.214843-26.753906 25.683593-24.273438 55.851562-22.753906 65.003906-1.449219 3.597656-3.6875 10.554687-3.519532 18.972656.089844 4.34375.835938 9.363281 2.914063 14.539062-8.855469 6.152344-13.921875 18.097657-13.921875 33.710938 0 23.539062 12.175781 46.117188 33.480469 42.277344 2.210937 22.359375 11.984375 43.085937 28.074219 59.164062 10.460937 10.46875 22.886718 18.257813 36.445312 23.035156v13.769532l-27.617188 9.269531c-1.9375.652344-3.46875 2.042969-4.335937 3.800781-35.589844 12.265625-60.046875 49.4375-60.046875 92.285156v16.898438c0 4.144531 3.359375 7.5 7.5 7.5h234c4.140625 0 7.5-3.355469 7.5-7.5v-16.898438c0-11.480468-1.753906-22.714843-5.210938-33.390624-1.277343-3.941407-5.503906-6.101563-9.445312-4.824219-3.941406 1.277343-6.101562 5.507812-4.824219 9.449219 2.972657 9.179687 4.480469 18.855468 4.480469 28.765624v9.398438h-86.425781l24.4375-17.761719c1.941406-1.410156 3.089843-3.664062 3.089843-6.066406v-15.402344l11.53125-8.359375c1.945313-1.414062 3.097657-3.667968 3.097657-6.074218v-31.574219c9.941406 4.554687 18.867187 11.734375 26.179687 21.144531 1.476563 1.898438 3.691406 2.894531 5.925782 2.894531 1.609374 0 3.230468-.515625 4.597656-1.578125 3.269531-2.542968 3.859375-7.253906 1.320312-10.523437-10.484375-13.484375-23.824218-23.210938-38.804687-28.386719-.863281-1.753906-2.394531-3.144531-4.335938-3.796875l-27.613281-9.269531v-13.820313c24.101562-8.546875 43.875-26.320312 55.050781-49.050781 1.242188.058594 2.480469.09375 3.707031.09375h83.625c.332032 3.097656.523438 7.128906.042969 11.289062-1.203125 10.503907-5.921875 16.765626-14.421875 19.144532-4.566406 1.277344-7.519531 5.804687-6.871094 10.527344.613282 4.460937 4.328126 7.699218 8.828126 7.699218 18.472656 0 33.175781-3.972656 43.703124-11.8125 11.160157-8.316406 17.535157-20.6875 19.007813-36.847656h79.570313c42.324218 0 76.757812-34.347656 76.757812-76.566406v-166.332032c0-42.21875-34.433594-76.570312-76.761719-76.570312zm-207.238281 270.90625v-39.988281c2.664062-1.988281 6.195312-4.949219 9.648438-8.804688 6.082031 3.511719 8.351562 13.117188 8.351562 21.886719 0 13.335938-5.761719 31.683594-18 26.90625zm-213-26.90625c0-8.011719 1.929688-16.933594 7.050781-21.007812 2.890625 3.117187 6.484375 6.136718 10.949219 8.929687v38.984375c-12.269531 4.789062-18-13.570312-18-26.90625zm65.269531 160.019531 17.265625-5.796875 20.984375 88.296875-23.621093-17.167969v-15.40625c0-2.402343-1.152344-4.660156-3.097657-6.070312l-11.53125-8.363281zm34.558594 2.101563h31.34375l-15.671875 65.9375zm-93.828125 81.480468c0-34.0625 17.78125-63.792968 44.269531-75.851562v31.585938c0 2.402343 1.152344 4.660156 3.097657 6.070312l11.53125 8.363281v15.402344c0 2.398437 1.148437 4.65625 3.089843 6.066406l24.4375 17.761719h-86.425781zm159.730469-83.582031v35.492188l-11.53125 8.363281c-1.945313 1.410156-3.097657 3.667969-3.097657 6.070312v15.40625l-23.621093 17.167969 20.984375-88.296875zm-32.730469-12.898437h-35v-18.683594c11.550781 2.082031 23.441406 2.089844 35-.015625zm-75.839844-56.285156c-15.578125-15.570313-24.160156-36.289063-24.160156-58.335938v-42.550781c4.292969-1.75 9.300781-5.78125 13.90625-14.425781 7.195312-13.496094 27.9375-21.632813 52.832031-20.730469 23.746094.855469 41.660157-4.375 53.480469-15.578125 4.488281 9.101562 9.4375 13.675781 13.953125 17.84375 5.0625 4.679687 9.0625 8.375 12.582031 19.222656 2.804688 8.644531 7.859375 12.4375 11.609375 14.097656 2.285157 1.011719 4.546875 1.457032 6.636719 1.578125v40.542969c0 73.015625-89.027344 110.179688-140.839844 58.335938zm0 0" fill="#0d6efd"/></svg>