<svg xmlns="http://www.w3.org/2000/svg" clip-rule="evenodd" fill-rule="evenodd" height="512" stroke-linejoin="round" stroke-miterlimit="2" viewBox="0 0 48 48" width="512"><g transform="translate(-240 -48)"><g id="Icon"><g transform="matrix(.707 -.707 .707 .707 87.91 154.711)"><path d="m179 80v4c0 .552.448 1 1 1h8c.552 0 1-.448 1-1s-.448-1-1-1h-7v-3c0-.552-.448-1-1-1s-1 .448-1 1z" fill="#0d6efd"/></g><g transform="translate(98)"><path d="m155 67.2c0-.583-.232-1.143-.644-1.556-.413-.412-.973-.644-1.556-.644h-1.6c-.583 0-1.143.232-1.556.644-.412.413-.644.973-.644 1.556v1.6c0 .583.232 1.143.644 1.556.413.412.973.644 1.556.644h1.6c.583 0 1.143-.232 1.556-.644.412-.413.644-.973.644-1.556zm-2 0v1.6c0 .053-.021.104-.059.141-.037.038-.088.059-.141.059h-1.6c-.053 0-.104-.021-.141-.059-.038-.037-.059-.088-.059-.141v-1.6c0-.053.021-.104.059-.141.037-.038.088-.059.141-.059h1.6c.053 0 .104.021.141.059.038.037.059.088.059.141z" fill="#0d6efd"/></g><g transform="translate(98 8)"><path d="m155 67.2c0-.583-.232-1.143-.644-1.556-.413-.412-.973-.644-1.556-.644h-1.6c-.583 0-1.143.232-1.556.644-.412.413-.644.973-.644 1.556v1.6c0 .583.232 1.143.644 1.556.413.412.973.644 1.556.644h1.6c.583 0 1.143-.232 1.556-.644.412-.413.644-.973.644-1.556zm-2 0v1.6c0 .053-.021.104-.059.141-.037.038-.088.059-.141.059h-1.6c-.053 0-.104-.021-.141-.059-.038-.037-.059-.088-.059-.141v-1.6c0-.053.021-.104.059-.141.037-.038.088-.059.141-.059h1.6c.053 0 .104.021.141.059.038.037.059.088.059.141z" fill="#0d6efd"/></g><g transform="translate(98 16)"><path d="m155 67.2c0-.583-.232-1.143-.644-1.556-.413-.412-.973-.644-1.556-.644h-1.6c-.583 0-1.143.232-1.556.644-.412.413-.644.973-.644 1.556v1.6c0 .583.232 1.143.644 1.556.413.412.973.644 1.556.644h1.6c.583 0 1.143-.232 1.556-.644.412-.413.644-.973.644-1.556zm-2 0v1.6c0 .053-.021.104-.059.141-.037.038-.088.059-.141.059h-1.6c-.053 0-.104-.021-.141-.059-.038-.037-.059-.088-.059-.141v-1.6c0-.053.021-.104.059-.141.037-.038.088-.059.141-.059h1.6c.053 0 .104.021.141.059.038.037.059.088.059.141z" fill="#0d6efd"/></g><g transform="translate(106)"><path d="m155 67.2c0-.583-.232-1.143-.644-1.556-.413-.412-.973-.644-1.556-.644h-1.6c-.583 0-1.143.232-1.556.644-.412.413-.644.973-.644 1.556v1.6c0 .583.232 1.143.644 1.556.413.412.973.644 1.556.644h1.6c.583 0 1.143-.232 1.556-.644.412-.413.644-.973.644-1.556zm-2 0v1.6c0 .053-.021.104-.059.141-.037.038-.088.059-.141.059h-1.6c-.053 0-.104-.021-.141-.059-.038-.037-.059-.088-.059-.141v-1.6c0-.053.021-.104.059-.141.037-.038.088-.059.141-.059h1.6c.053 0 .104.021.141.059.038.037.059.088.059.141z" fill="#0d6efd"/></g><g transform="translate(106 8)"><path d="m155 67.2c0-.583-.232-1.143-.644-1.556-.413-.412-.973-.644-1.556-.644h-1.6c-.583 0-1.143.232-1.556.644-.412.413-.644.973-.644 1.556v1.6c0 .583.232 1.143.644 1.556.413.412.973.644 1.556.644h1.6c.583 0 1.143-.232 1.556-.644.412-.413.644-.973.644-1.556zm-2 0v1.6c0 .053-.021.104-.059.141-.037.038-.088.059-.141.059h-1.6c-.053 0-.104-.021-.141-.059-.038-.037-.059-.088-.059-.141v-1.6c0-.053.021-.104.059-.141.037-.038.088-.059.141-.059h1.6c.053 0 .104.021.141.059.038.037.059.088.059.141z" fill="#0d6efd"/></g><g transform="translate(106 16)"><path d="m155 67.2c0-.583-.232-1.143-.644-1.556-.413-.412-.973-.644-1.556-.644h-1.6c-.583 0-1.143.232-1.556.644-.412.413-.644.973-.644 1.556v1.6c0 .583.232 1.143.644 1.556.413.412.973.644 1.556.644h1.6c.583 0 1.143-.232 1.556-.644.412-.413.644-.973.644-1.556zm-2 0v1.6c0 .053-.021.104-.059.141-.037.038-.088.059-.141.059h-1.6c-.053 0-.104-.021-.141-.059-.038-.037-.059-.088-.059-.141v-1.6c0-.053.021-.104.059-.141.037-.038.088-.059.141-.059h1.6c.053 0 .104.021.141.059.038.037.059.088.059.141z" fill="#0d6efd"/></g><g transform="translate(114)"><path d="m155 67.2c0-.583-.232-1.143-.644-1.556-.413-.412-.973-.644-1.556-.644h-1.6c-.583 0-1.143.232-1.556.644-.412.413-.644.973-.644 1.556v1.6c0 .583.232 1.143.644 1.556.413.412.973.644 1.556.644h1.6c.583 0 1.143-.232 1.556-.644.412-.413.644-.973.644-1.556zm-2 0v1.6c0 .053-.021.104-.059.141-.037.038-.088.059-.141.059h-1.6c-.053 0-.104-.021-.141-.059-.038-.037-.059-.088-.059-.141v-1.6c0-.053.021-.104.059-.141.037-.038.088-.059.141-.059h1.6c.053 0 .104.021.141.059.038.037.059.088.059.141z" fill="#0d6efd"/></g><g transform="translate(122)"><path d="m155 67.2c0-.583-.232-1.143-.644-1.556-.413-.412-.973-.644-1.556-.644h-1.6c-.583 0-1.143.232-1.556.644-.412.413-.644.973-.644 1.556v1.6c0 .583.232 1.143.644 1.556.413.412.973.644 1.556.644h1.6c.583 0 1.143-.232 1.556-.644.412-.413.644-.973.644-1.556zm-2 0v1.6c0 .053-.021.104-.059.141-.037.038-.088.059-.141.059h-1.6c-.053 0-.104-.021-.141-.059-.038-.037-.059-.088-.059-.141v-1.6c0-.053.021-.104.059-.141.037-.038.088-.059.141-.059h1.6c.053 0 .104.021.141.059.038.037.059.088.059.141z" fill="#0d6efd"/></g><g transform="translate(96)"><path d="m171.517 91h-21.517c-1.326 0-2.598-.527-3.536-1.464-.937-.938-1.464-2.21-1.464-3.536v-28c0-2.761 2.239-5 5-5h3v-1c0-1.657 1.343-3 3-3s3 1.343 3 3v1h14v-1c0-1.657 1.343-3 3-3s3 1.343 3 3v1h3c2.761 0 5 2.239 5 5v17.517c2.443 2.019 4 5.07 4 8.483 0 6.071-4.929 11-11 11-3.413 0-6.464-1.557-8.483-4zm8.483-16c4.967 0 9 4.033 9 9s-4.033 9-9 9-9-4.033-9-9 4.033-9 9-9zm5-.799v-11.201h-38v23c0 .796.316 1.559.879 2.121.562.563 1.325.879 2.121.879h20.201c-.768-1.5-1.201-3.2-1.201-5 0-6.071 4.929-11 11-11 1.8 0 3.5.433 5 1.201zm-6-19.201v1c0 1.657-1.343 3-3 3s-3-1.343-3-3v-1h-14v1c0 1.657-1.343 3-3 3s-3-1.343-3-3v-1h-3c-1.657 0-3 1.343-3 3v3h38v-3c0-1.657-1.343-3-3-3zm-2-3v4c0 .552-.448 1-1 1s-1-.448-1-1v-4c0-.552.448-1 1-1s1 .448 1 1zm-20 0v4c0 .552-.448 1-1 1s-1-.448-1-1v-4c0-.552.448-1 1-1s1 .448 1 1z" fill="#0d6efd"/></g></g></g></svg>