<svg width="560" height="190" viewBox="0 0 560 190" fill="none" xmlns="http://www.w3.org/2000/svg">
<path d="M527.172 3.21188C523.444 3.20245 519.751 3.92936 516.305 5.3509C512.858 6.77244 509.726 8.8606 507.089 11.4956L465.218 53.362L423.349 11.4956C418.012 6.18903 410.792 3.21039 403.266 3.21039C395.739 3.21039 388.519 6.18903 383.182 11.4956L381.579 13.0957C376.273 18.433 373.294 25.6533 373.294 33.1794C373.294 40.7056 376.273 47.9259 381.579 53.2632L423.451 95.1349L381.579 137.007C376.272 142.344 373.294 149.564 373.294 157.09C373.294 164.617 376.272 171.837 381.579 177.174L383.179 178.776C388.517 184.082 395.737 187.06 403.263 187.06C410.789 187.06 418.009 184.082 423.347 178.776L465.218 136.904L507.09 178.776C512.427 184.082 519.648 187.06 527.174 187.06C534.7 187.06 541.92 184.082 547.258 178.776L548.858 177.174C554.164 171.837 557.143 164.617 557.143 157.09C557.143 149.564 554.164 142.344 548.858 137.007L506.986 95.1349L548.858 53.2632C554.164 47.9259 557.142 40.7056 557.142 33.1794C557.142 25.6533 554.164 18.433 548.858 13.0957L547.256 11.4956C544.619 8.86076 541.487 6.77268 538.041 5.35114C534.595 3.92961 530.902 3.20263 527.174 3.21188H527.172Z" fill="white"/>
<path d="M528.745 5.54423C531.955 5.52984 535.137 6.1525 538.105 7.37616C541.074 8.59982 543.77 10.4002 546.038 12.673L547.68 14.3139C552.245 18.9115 554.807 25.1278 554.807 31.607C554.807 38.0862 552.245 44.3025 547.68 48.9001L504.747 91.8333C504.314 92.2666 503.97 92.781 503.735 93.3471C503.501 93.9133 503.38 94.5201 503.38 95.1329C503.38 95.7457 503.501 96.3525 503.735 96.9187C503.97 97.4849 504.314 97.9993 504.747 98.4326L547.68 141.366C552.259 145.956 554.831 152.175 554.831 158.659C554.831 165.144 552.259 171.363 547.68 175.953L546.039 177.594C541.442 182.16 535.225 184.723 528.745 184.723C522.266 184.723 516.049 182.16 511.451 177.594L468.518 134.661C468.085 134.228 467.571 133.884 467.005 133.649C466.439 133.415 465.832 133.294 465.219 133.294C464.607 133.294 464 133.415 463.434 133.649C462.868 133.884 462.354 134.228 461.92 134.661L418.987 177.594C414.39 182.16 408.174 184.723 401.694 184.723C395.215 184.723 388.998 182.16 384.401 177.594L382.759 175.952C378.179 171.362 375.608 165.143 375.608 158.659C375.608 152.175 378.179 145.956 382.759 141.366L425.692 98.4326C426.125 97.9993 426.469 97.4849 426.704 96.9187C426.938 96.3525 427.059 95.7457 427.059 95.1329C427.059 94.5201 426.938 93.9133 426.704 93.3471C426.469 92.781 426.125 92.2666 425.692 91.8333L382.759 48.9001C378.193 44.3028 375.631 38.0864 375.631 31.607C375.631 25.1276 378.193 18.9112 382.759 14.3139L384.402 12.6716C389 8.10639 395.216 5.54439 401.695 5.54439C408.175 5.54439 414.391 8.10639 418.989 12.6716L461.922 55.6048C462.355 56.0382 462.869 56.3819 463.436 56.6165C464.002 56.851 464.609 56.9717 465.221 56.9717C465.834 56.9717 466.441 56.851 467.007 56.6165C467.573 56.3819 468.088 56.0382 468.521 55.6048L511.454 12.6716C513.723 10.3992 516.419 8.5991 519.388 7.37568C522.356 6.15225 525.538 5.52978 528.749 5.54423H528.745ZM528.749 0.878213C524.926 0.868572 521.139 1.61399 517.605 3.0717C514.071 4.5294 510.86 6.67067 508.155 9.37263L465.222 52.3058L422.289 9.37263C416.817 3.93194 409.413 0.878052 401.697 0.878052C393.98 0.878052 386.577 3.93194 381.105 9.37263L379.462 11.0149C374.021 16.4869 370.967 23.8901 370.967 31.607C370.967 39.3239 374.021 46.7271 379.462 52.1991L422.396 95.1323L379.462 138.065C374.022 143.538 370.969 150.941 370.969 158.658C370.969 166.375 374.022 173.778 379.462 179.251L381.103 180.893C386.576 186.333 393.98 189.386 401.696 189.386C409.413 189.386 416.816 186.333 422.289 180.893L465.222 137.96L508.155 180.893C513.628 186.333 521.031 189.386 528.748 189.386C536.465 189.386 543.868 186.333 549.341 180.893L550.982 179.251C556.422 173.778 559.475 166.375 559.475 158.658C559.475 150.941 556.422 143.538 550.982 138.065L508.048 95.1323L550.982 52.1991C556.422 46.7268 559.476 39.3237 559.476 31.607C559.476 23.8903 556.422 16.4872 550.982 11.0149L549.339 9.37263C546.635 6.67082 543.424 4.52964 539.89 3.07194C536.357 1.61424 532.57 0.868745 528.747 0.878213H528.749Z" fill="#ED2024"/>
<path d="M327.32 17.256C327.32 17.256 314.141 2.81677 295.845 2.81677C287.961 2.81677 279.13 5.49681 269.99 13.1668L270.007 13.1958C268.161 14.6565 266.419 16.2437 264.793 17.9461L227.084 54.9029L188.899 16.7187C186.765 14.1019 176.334 2.43749 159.869 2.43749C151.559 2.43749 141.719 5.41251 130.639 14.0334V14.0426C129.237 14.9881 127.927 16.0641 126.727 17.256L55.9405 88.0443V27.0766C55.92 19.9497 53.0807 13.1204 48.0424 8.0797C43.0042 3.03897 36.1762 0.196275 29.0493 0.172302H26.904C19.7752 0.193496 12.9444 3.03488 7.90361 8.07588C2.86287 13.1169 0.0218487 19.9478 0.00100404 27.0766V154.859C0.00100404 154.909 0.00100404 154.959 0.00100404 155.01C-0.0297881 158.568 0.647961 162.097 1.99486 165.392C3.34176 168.686 5.33084 171.679 7.84614 174.196L9.36197 175.714C14.4177 180.74 21.2571 183.561 28.3862 183.561C35.5153 183.561 42.3547 180.74 47.4105 175.714L89.3151 133.808L120.876 165.367L127.31 171.902C127.31 171.902 140.492 187.46 158.831 187.46C166.275 187.46 174.564 184.899 183.171 177.697C183.285 177.607 183.398 177.518 183.51 177.426C183.586 177.36 183.664 177.306 183.74 177.24L183.731 177.224C184.303 176.742 184.868 176.251 185.405 175.714L227.087 134.032L264.732 171.678C266.148 173.085 267.716 174.328 269.408 175.386C274.718 180.087 285.135 187.453 298.349 187.453C306.583 187.453 315.898 184.589 325.719 176.425L326.588 175.724C326.717 175.615 326.84 175.498 326.955 175.374C327.435 174.959 327.908 174.536 328.361 174.083L382.844 115.182C389.222 108.85 392.311 102.012 392.023 94.8636C391.604 84.5043 384.047 77.3729 382.774 76.2417L327.32 17.256ZM187.519 94.4672L158.31 123.676L128.875 94.2433L158.084 65.0343L187.519 94.4672ZM298.025 67.2613L325.329 94.5633L296.13 123.951L266.643 94.4659L295.976 65.1344C296.636 65.8376 297.316 66.5448 298.025 67.2613V67.2613Z" fill="#ED2024"/>
</svg>
