<?xml version="1.0" encoding="utf-8"?>
<!-- Generator: Adobe Illustrator 27.5.0, SVG Export Plug-In . SVG Version: 6.00 Build 0)  -->
<svg version="1.1" xmlns="http://www.w3.org/2000/svg" xmlns:xlink="http://www.w3.org/1999/xlink" x="0px" y="0px"
	 viewBox="0 0 500 500" style="enable-background:new 0 0 500 500;" xml:space="preserve">
<g id="BACKGROUND">
	<path style="fill:#9FD1FF;" d="M423.576,94.16c0,0-45.212-74.356-165.686-83.123C75.443-2.24-40.11,185.734,91.636,326.651
		C259.104,505.777,549.549,257.814,423.576,94.16z"/>
</g>
<g id="OBJECTS">
	<g>
		<defs>
			<rect id="SVGID_1_" width="500" height="500"/>
		</defs>
		<clipPath id="SVGID_00000077326303945680945440000018126436114212676025_">
			<use xlink:href="#SVGID_1_"  style="overflow:visible;"/>
		</clipPath>
		<g style="clip-path:url(#SVGID_00000077326303945680945440000018126436114212676025_);">
			<g>
				<g>
					<path style="fill:#BA3131;" d="M234.109,375.939H337c0,0,15.079,71.624,9.424,141.362h-78.22
						C268.204,517.301,237.878,427.772,234.109,375.939z"/>
					<path style="fill:#D84848;" d="M207.83,285.701c0,0-53.226,46.518-57.891,146.421c-3.428,73.4,0.803,86.086,0.803,86.086h96.96
						c0,0,12.721-47.075,16.345-91.477c0,0,47.993-22.7,73.365-50.791c0,0-11.78-56.182-55.276-95.147
						C282.135,280.792,247.701,299.672,207.83,285.701z"/>
				</g>
				<g>
					<g>
						<g>
							<path style="fill:#AD1E1E;" d="M191.066,399.5c3.148,0.804,6.285,1.668,9.399,2.599c3.126,0.897,6.235,1.847,9.342,2.805
								c3.107,0.961,6.192,1.987,9.277,3.016l4.622,1.561c1.543,0.515,3.065,1.086,4.599,1.627c3.064,1.091,6.123,2.198,9.173,3.33
								l9.099,3.531c1.511,0.604,3.031,1.184,4.533,1.808l4.496,1.901l8.987,3.818l-1.066-0.012
								c2.733-1.162,5.487-2.415,8.192-3.718c2.715-1.295,5.4-2.654,8.085-4.014c1.345-0.676,2.665-1.398,3.999-2.095
								c1.338-0.691,2.643-1.44,3.962-2.163c1.322-0.72,2.63-1.465,3.931-2.22c1.299-0.759,2.626-1.476,3.903-2.271l3.86-2.345
								l3.807-2.429c1.281-0.795,2.526-1.639,3.765-2.495c1.238-0.856,2.5-1.683,3.721-2.565l3.663-2.65
								c1.234-0.87,2.38-1.849,3.576-2.77c1.187-0.932,2.38-1.859,3.504-2.868l3.455-2.941l-3.189,3.234
								c-1.051,1.095-2.191,2.093-3.318,3.107c-1.138,1-2.229,2.062-3.409,3.014l-3.508,2.904c-1.165,0.977-2.41,1.845-3.612,2.773
								c-1.208,0.921-2.424,1.832-3.675,2.692c-1.242,0.872-2.476,1.76-3.736,2.608l-3.811,2.496
								c-1.263,0.846-2.573,1.613-3.858,2.423c-1.284,0.813-2.588,1.591-3.908,2.343c-1.316,0.757-2.619,1.54-3.954,2.264
								c-1.331,0.73-2.65,1.486-3.992,2.196c-1.345,0.705-2.674,1.443-4.034,2.12c-1.361,0.676-2.708,1.377-4.081,2.029
								c-2.734,1.339-5.477,2.611-8.3,3.834l-0.517,0.224l-0.549-0.235l-8.933-3.83l-4.464-1.923
								c-1.492-0.632-3.003-1.22-4.503-1.832l-8.994-3.698l-9.055-3.554c-1.51-0.59-3.009-1.211-4.529-1.776l-4.551-1.721
								c-3.027-1.168-6.055-2.335-9.107-3.438c-3.036-1.149-6.072-2.301-9.129-3.395L191.066,399.5z"/>
						</g>
						<g>
							<path style="fill:#AD1E1E;" d="M258.009,300.217c2.511,4.715,4.514,9.692,6.291,14.734c1.767,5.049,3.29,10.187,4.576,15.386
								c0.645,2.599,1.208,5.219,1.718,7.849c0.501,2.631,0.978,5.269,1.358,7.922c0.421,2.647,0.727,5.311,1.034,7.974l0.396,4.003
								l0.297,4.011c0.111,1.337,0.164,2.677,0.223,4.017c0.048,1.34,0.148,2.68,0.153,4.021l0.069,4.024
								c0.023,1.342-0.029,2.683-0.042,4.025c-0.009,2.685-0.189,5.363-0.297,8.046c-0.198,2.676-0.352,5.358-0.637,8.027
								c-0.278,2.67-0.545,5.342-0.942,7.997c-0.192,1.329-0.353,2.662-0.578,3.985l-0.683,3.968
								c-0.415,2.654-1.039,5.267-1.552,7.902c-0.564,2.624-1.227,5.226-1.836,7.841l-1.909-1.535l23.077-11.625l-0.705,0.949
								c0.382-2.292,0.675-4.674,0.928-7.028c0.25-2.362,0.459-4.732,0.626-7.104c0.174-2.372,0.292-4.75,0.377-7.128
								c0.085-2.378,0.127-4.759,0.127-7.139c-0.002-2.38-0.033-4.761-0.125-7.14c-0.075-2.379-0.19-4.758-0.348-7.133
								c-0.146-2.377-0.367-4.748-0.596-7.118c-0.273-2.365-0.527-4.734-0.891-7.088c-0.313-2.362-0.751-4.703-1.158-7.051
								c-0.471-2.335-0.919-4.676-1.489-6.989c-0.507-2.329-1.174-4.617-1.779-6.923c-0.706-2.275-1.317-4.583-2.117-6.83
								c-0.725-2.274-1.587-4.497-2.435-6.728c-0.416-1.119-0.919-2.202-1.375-3.305c-0.467-1.099-0.921-2.204-1.453-3.273
								l-1.54-3.236l-1.663-3.176l-0.832-1.59l-0.901-1.551l-1.811-3.102l1.959,3.012l0.977,1.51l0.91,1.551
								c0.605,1.035,1.22,2.066,1.801,3.116l1.663,3.193c0.573,1.056,1.07,2.149,1.579,3.237c0.498,1.092,1.044,2.165,1.503,3.275
								c0.934,2.213,1.884,4.423,2.696,6.687c0.881,2.239,1.603,4.534,2.367,6.816c0.662,2.312,1.386,4.609,1.95,6.949
								c0.628,2.324,1.132,4.677,1.659,7.026c0.463,2.361,0.957,4.718,1.326,7.097c0.419,2.371,0.73,4.758,1.058,7.144
								c0.284,2.39,0.56,4.783,0.761,7.182c0.122,1.198,0.195,2.4,0.282,3.601c0.095,1.201,0.165,2.402,0.209,3.606
								c0.121,2.405,0.179,4.813,0.208,7.221c0.027,2.408,0.013,4.817-0.046,7.225c-0.058,2.408-0.15,4.816-0.3,7.221
								c-0.138,2.406-0.327,4.81-0.578,7.21c-0.251,2.408-0.53,4.782-0.927,7.215l-0.105,0.646l-0.6,0.304l-23.055,11.669
								l-2.581,1.307l0.672-2.842c0.611-2.581,1.276-5.149,1.843-7.74c0.515-2.601,1.143-5.181,1.562-7.801l0.69-3.918
								c0.229-1.306,0.388-2.623,0.589-3.934c0.421-2.619,0.715-5.255,1.02-7.89c0.311-2.634,0.493-5.281,0.719-7.924
								c0.135-2.649,0.345-5.295,0.383-7.948c0.097-2.652,0.117-5.305,0.12-7.959c0.025-1.327-0.046-2.653-0.064-3.98
								c-0.029-1.327-0.052-2.654-0.133-3.979l-0.207-3.977l-0.305-3.972c-0.246-2.644-0.491-5.29-0.851-7.923
								c-0.319-2.638-0.734-5.264-1.173-7.884c-0.445-2.621-0.965-5.228-1.496-7.833c-1.09-5.206-2.42-10.365-3.997-15.452
								c-0.797-2.54-1.644-5.067-2.579-7.562C260.145,305.106,259.159,302.626,258.009,300.217z"/>
						</g>
					</g>
					<g>
						<g>
							<path style="fill:#AD1E1E;" d="M235.161,305.576c-1.137,4.111-2.595,8.134-4.241,12.075c-0.818,1.974-1.699,3.921-2.61,5.856
								l-1.417,2.879l-1.493,2.842c-1.034,1.874-2.084,3.743-3.23,5.556c-0.548,0.922-1.166,1.799-1.751,2.698
								c-0.58,0.902-1.205,1.775-1.834,2.645c-0.621,0.875-1.245,1.749-1.918,2.587c-0.671,0.839-1.295,1.716-2.005,2.525
								l-2.093,2.456l-2.203,2.363c-0.732,0.79-1.536,1.512-2.302,2.271c-0.759,0.768-1.579,1.47-2.397,2.175
								c-1.601,1.451-3.347,2.735-5.082,4.028l-2.698,1.813c-0.908,0.592-1.875,1.091-2.811,1.64
								c-0.929,0.565-1.916,1.02-2.898,1.485c-0.984,0.459-1.947,0.969-2.976,1.329l-3.048,1.168l-3.13,0.932
								c-1.034,0.35-2.117,0.504-3.178,0.747c-1.067,0.219-2.127,0.479-3.214,0.577l-3.243,0.401
								c-1.086,0.064-2.175,0.087-3.262,0.132l-1.632,0.056l-1.629-0.074l-3.259-0.151l1.275-0.889l-3.661,13.591l-1.028-1.551
								c2.375,0.251,4.924,0.287,7.399,0.202c2.492-0.097,4.981-0.323,7.453-0.677c2.467-0.384,4.927-0.837,7.341-1.481l1.812-0.473
								l1.789-0.554c1.202-0.344,2.367-0.793,3.541-1.218c2.343-0.862,4.634-1.866,6.867-2.985c2.227-1.128,4.406-2.359,6.491-3.738
								c1.072-0.646,2.069-1.401,3.08-2.137l1.516-1.104l1.444-1.198c1.967-1.549,3.772-3.291,5.575-5.03l2.579-2.74
								c0.854-0.919,1.613-1.922,2.426-2.88l1.196-1.457l1.104-1.528c0.725-1.027,1.501-2.02,2.185-3.076
								c1.328-2.138,2.745-4.226,3.895-6.474c0.593-1.112,1.238-2.199,1.789-3.334l1.614-3.426l0.819-1.709l0.72-1.754l1.442-3.51
								c0.912-2.36,1.683-4.774,2.533-7.163l2.109-7.31l1.792-7.406l-1.418,7.496l-1.838,7.412
								c-0.762,2.429-1.447,4.888-2.277,7.299l-1.32,3.593l-0.661,1.798l-0.762,1.758l-1.555,3.505
								c-0.533,1.162-1.16,2.279-1.736,3.422c-1.116,2.307-2.505,4.464-3.809,6.672c-0.672,1.091-1.439,2.122-2.155,3.187
								l-1.092,1.586l-1.187,1.517c-0.808,0.999-1.563,2.042-2.415,3.004l-2.58,2.87c-1.812,1.825-3.62,3.67-5.622,5.298
								l-1.475,1.252l-1.55,1.158c-1.034,0.772-2.055,1.562-3.153,2.243c-2.137,1.449-4.374,2.749-6.663,3.942
								c-2.295,1.184-4.653,2.251-7.067,3.171c-1.213,0.445-2.418,0.914-3.659,1.275l-1.849,0.579l-1.872,0.497
								c-2.495,0.675-5.037,1.155-7.587,1.561c-2.556,0.376-5.132,0.621-7.717,0.731c-2.6,0.096-5.147,0.084-7.825-0.217
								l-1.41-0.159l0.381-1.393l3.714-13.576l0.257-0.94l1.018,0.051l3.128,0.156l1.564,0.079l1.563-0.049
								c1.042-0.039,2.085-0.056,3.126-0.112l3.106-0.353c1.042-0.078,2.058-0.318,3.081-0.516c1.017-0.222,2.058-0.353,3.05-0.679
								l3.008-0.856l2.935-1.087c0.992-0.331,1.922-0.813,2.873-1.243c0.949-0.436,1.905-0.861,2.805-1.396
								c0.909-0.517,1.842-0.993,2.734-1.54l2.648-1.693c1.707-1.214,3.432-2.42,5.022-3.797c0.812-0.668,1.628-1.333,2.385-2.066
								c0.764-0.724,1.565-1.41,2.299-2.167l2.21-2.264l2.108-2.363c0.716-0.777,1.348-1.626,2.027-2.437
								c0.681-0.809,1.315-1.656,1.947-2.504c0.64-0.843,1.275-1.689,1.868-2.567c0.598-0.874,1.228-1.726,1.79-2.625
								c1.167-1.769,2.297-3.563,3.384-5.386l1.585-2.762l1.512-2.804c0.976-1.887,1.925-3.79,2.811-5.723
								c0.902-1.927,1.722-3.89,2.541-5.855C233.732,309.592,234.499,307.603,235.161,305.576z"/>
						</g>
						<g>
							<g>
								<path style="fill:none;stroke:#AD1E1E;stroke-width:1.3592;stroke-miterlimit:10;" d="M173.395,381.224
									c0,0-0.507,2.837-1.281,8.051"/>
								<path style="fill:none;stroke:#AD1E1E;stroke-width:1.3592;stroke-miterlimit:10;stroke-dasharray:17.3057,17.3057;" d="
									M169.829,406.425c-2.599,21.7-5.647,55.672-5.519,94.968"/>
								<path style="fill:none;stroke:#AD1E1E;stroke-width:1.3592;stroke-miterlimit:10;" d="M164.389,510.053
									c0.041,2.697,0.098,5.416,0.171,8.154"/>
							</g>
						</g>
					</g>
				</g>
				<g>
					<path style="fill:#2C2429;" d="M215.898,294.837c-8.911-1.998-14.262-4.304-14.262-4.304l-8.515,11.905
						c5.889,2.308,11.538,4.174,16.957,5.674C212.061,303.688,214.273,299.328,215.898,294.837z"/>
					<path style="fill:#2C2429;" d="M288.873,287.215c-24.135,11.461-47.336,11.639-63.738,9.311
						c-1.683,4.684-3.909,9.21-5.908,13.821c51.564,10.875,79.148-12.638,79.148-12.638
						C292.288,289.933,288.873,287.215,288.873,287.215z"/>
					<polygon style="fill:#F89B6A;" points="250.754,294.759 250.571,316.491 280.045,312.688 275.785,291.385 					"/>
				</g>
			</g>
			<g>
				<g>
					<path style="fill:#1C171A;" d="M218.507,39.751c0,0,29.648-10.874,44.146,12.686c14.499,23.56-1.99,62.072,21.659,82.008
						c23.649,19.936,18.651,62.456-8.3,77.443C249.06,226.875,192.484,118.135,218.507,39.751z"/>
					<g>
						<path style="fill:#1C171A;" d="M221.278,40.475c0,0,0.823-0.334,2.418-0.813c1.595-0.47,3.961-1.126,7.05-1.565
							c3.081-0.452,6.895-0.742,11.255-0.314c4.337,0.42,9.294,1.661,13.958,4.545c2.326,1.427,4.555,3.245,6.548,5.418l0.754,0.817
							l0.696,0.876c0.468,0.585,0.942,1.174,1.352,1.815l0.644,0.946l0.34,0.508l0.282,0.487c0.371,0.659,0.768,1.285,1.125,1.984
							c2.95,5.633,4.42,12.103,5.189,18.783c0.773,6.688,0.919,13.595,1.206,20.541c0.305,6.935,0.776,13.98,2.517,20.683
							c0.86,3.345,2.05,6.591,3.682,9.576c1.625,2.987,3.696,5.698,6.121,8.019c1.279,1.176,2.553,2.346,3.821,3.511
							c0.623,0.659,1.244,1.316,1.864,1.972c0.564,0.686,1.125,1.37,1.686,2.052c2.154,2.795,3.921,5.818,5.308,8.935
							c1.384,3.12,2.412,6.327,3.08,9.532c0.654,3.209,0.969,6.401,1.034,9.504c0.076,3.105-0.143,6.127-0.594,9.007
							c-0.188,1.447-0.523,2.842-0.8,4.219c-0.369,1.356-0.672,2.702-1.117,3.978c-1.601,5.161-3.929,9.58-6.402,13.175
							c-2.469,3.607-5.109,6.381-7.459,8.43c-1.139,1.069-2.301,1.853-3.255,2.592c-1.017,0.658-1.856,1.251-2.576,1.671
							c-1.449,0.818-2.222,1.253-2.222,1.253s0.745-0.479,2.143-1.378c0.691-0.459,1.493-1.098,2.46-1.807
							c0.457-0.388,0.949-0.806,1.473-1.251c0.536-0.431,1.073-0.926,1.619-1.471c2.232-2.122,4.708-4.963,6.97-8.595
							c2.261-3.624,4.335-8.02,5.754-13.069c0.393-1.25,0.645-2.567,0.963-3.89c0.225-1.344,0.509-2.702,0.646-4.106
							c0.352-2.795,0.513-5.713,0.368-8.698c-0.13-2.984-0.5-6.038-1.194-9.088c-0.721-3.041-1.712-6.085-3.072-9.02
							c-1.354-2.935-3.06-5.763-5.119-8.361c-0.534-0.633-1.07-1.267-1.607-1.904l-1.713-1.769c-1.284-1.17-2.575-2.345-3.871-3.525
							c-2.628-2.491-4.889-5.425-6.653-8.633c-1.771-3.207-3.056-6.664-3.97-10.179c-1.796-7.059-2.227-14.27-2.508-21.259
							c-0.276-6.999-0.273-13.851-0.959-20.388c-0.673-6.502-1.976-12.804-4.587-18.068c-2.678-5.359-6.451-9.674-10.801-12.512
							c-4.34-2.849-9.037-4.263-13.248-4.858c-4.229-0.601-8.002-0.48-11.068-0.163c-3.071,0.322-5.464,0.796-7.077,1.185
							C222.119,40.189,221.278,40.475,221.278,40.475z"/>
					</g>
				</g>
				<g>
					<g>
						<path style="fill:#F89B6A;" d="M193.12,119.944c0,0,13.577,44.855,3.383,46.214c-10.194,1.359-47.802-5.437-36.474,29.904
							s70.455,44.855,70.455,44.855s70.535-19.366,60.417-55.964c-8.765-31.705-34.491-15.448-47.896-18.795
							c-18.438-4.604-14.56-46.214-14.56-46.214H193.12z"/>
						<path style="fill:#F77754;" d="M236.079,161.783c-10.419-11.889-7.634-41.839-7.634-41.839H193.12
							c0,0,5.313,17.555,6.796,31.034C208.94,160.815,222.922,164.396,236.079,161.783z"/>
					</g>
					<path style="fill:#F89B6A;" d="M236.079,56.062c0,0-39.123-14.949-51.012,20.06c-13.64,40.166,15.044,85.583,51.012,76.446
						C265.493,145.097,265.254,67.436,236.079,56.062z"/>
				</g>
			</g>
			<g>
				<g>
					<g>
						<path style="fill:#F89B6A;" d="M300.687,188.232l37.242,29.531l32.262-79.219c0,0-25.699-24.308,3.2-7.515
							c0,0-31.967-49.242,2.779-6.703c0,0-21.628-54.902,4.373-9.194c0,0-18.332-47.117,4.486-3.506c0,0,5.408,10.458,3.02,31.682
							c-2.64,23.462-19.547,110.32-35.012,122.604c-15.465,12.285-72.307-41.038-72.307-41.038L300.687,188.232z"/>
						<path style="fill:#F77754;" d="M310.651,219.003c2.483-5.552,5.757-10.743,8.441-16.177l-18.405-14.594l-19.958,36.642
							c0,0,8.097,7.595,19.008,16.391C303.93,234.141,307.261,226.582,310.651,219.003z"/>
					</g>
					<g>
						<path style="fill:#FFFFFF;" d="M182.23,222.57l-13.38,16.882c0,0-30.796-10.086-39.631-36.591
							c0,0,29.394-29.903,35.086-33.302c5.692-3.398,22.682-4.078,22.682-4.078s9.893,30.358,46.49,27.507
							c36.597-2.851,25.324-30.226,25.324-30.226s19.256-10.874,56.635,32.622c0,0-15.631,28.544-31.263,34.661
							c-15.631,6.117-59.699-10.194-59.699-10.194L182.23,222.57z"/>
						<path style="fill:#E1F0FF;" d="M292.618,173.274c-0.277,1.684-0.624,3.314-1.003,4.834
							c-2.482,9.947-7.276,18.745-13.629,26.759c-6.919,8.727-15.401,16.726-24.798,23.522c11.717,2.695,24.106,4.349,30.987,1.657
							c15.631-6.117,31.263-34.661,31.263-34.661C306.874,185.42,299.265,178.316,292.618,173.274z"/>
					</g>
					<g>
						<g>
							<path style="fill:#2C2429;" d="M372.602,147.347c0,0-5.198,15.645-7.532,17.115c-2.334,1.471-34.917-10.44-34.14-18.392
								c0.778-7.952,25.189-77.605,30.567-78.079c5.378-0.474,32.183,11.054,34.164,18.669
								C399.484,101.354,372.602,147.347,372.602,147.347z"/>
							<path style="fill:#1C171A;" d="M374.66,148.314c0,0-4.837,14.558-7.008,15.926c-2.172,1.368-32.492-9.715-31.768-17.115
								c0.724-7.399,23.439-72.214,28.444-72.655c5.004-0.441,30.695,10.133,31.791,17.372
								C397.215,99.082,374.66,148.314,374.66,148.314z"/>
							<path style="fill:#E1F0FF;" d="M366.014,83.671c0,1.485,1.204,2.689,2.689,2.689c1.485,0,2.689-1.204,2.689-2.689
								c0-1.485-1.204-2.689-2.689-2.689C367.218,80.982,366.014,82.186,366.014,83.671z"/>
						</g>
						<g>
							<g>
								<polygon style="fill:#FFFFFF;" points="331.058,54.237 348.037,74.095 347.349,74.82 326.62,58.917 								"/>
							</g>
							<g>
								<polygon style="fill:#FFFFFF;" points="312.591,63.219 338.426,73.984 338.106,74.931 311.037,67.816 								"/>
							</g>
							<g>
								<polygon style="fill:#FFFFFF;" points="319.092,80.234 344.36,83.171 344.36,84.171 319.092,87.109 								"/>
							</g>
						</g>
					</g>
				</g>
				<g>
					<path style="fill:#FFFFFF;" d="M200.369,285.701c0,0,56.481,15.253,90.532-4.909l-4.688-33.755c0,0,19.709-27.865-5.437-50.292
						c-25.146-22.428-107.381,21.748-107.381,21.748S189.283,266.295,200.369,285.701z"/>
					<path style="fill:#E1F0FF;" d="M267.978,261.769c-32.598-4.758-65.642-20.518-81.229-49.881
						c-8.166,3.818-13.354,6.604-13.354,6.604s15.888,47.802,26.973,67.208c0,0,56.481,15.253,90.532-4.909l-2.397-17.261
						C281.531,263.342,274.646,262.742,267.978,261.769z"/>
				</g>
				<g>
					<g>
						<path style="fill:#F89B6A;" d="M140.773,197.424c0,0-46.894,46.215-46.214,63.885c0.68,17.67,76.841,63.259,89.031,58.448
							c8.609-3.398,9.53-14.181,9.53-14.181s42.863,16.808,2.394-6.254c0,0,47.671,16.334,3.707-4.259c0,0,46.215,7.023,5.021-5.849
							c0,0,36.334,0.638-6.381-5.931c0,0-7.841-1.005-15.631,16.039l-43.584-39.12c0,0,36.788-41.71,49.021-51.904
							C199.901,198.104,178.832,162.084,140.773,197.424z"/>
						<path style="fill:#F77754;" d="M143.699,233.684c4.345,2.412,8.796,4.412,13.337,6.066
							c11.069-12.114,24.22-26.109,30.631-31.451c12.233-10.194-8.835-46.214-46.894-10.874c0,0-8.175,8.061-17.645,18.728
							C128.754,223.537,136.621,229.754,143.699,233.684z"/>
					</g>
					<path style="fill:#FFFFFF;" d="M218.507,192.187c-24.413-4.93-31.519-26.706-31.519-26.706s-16.362,2.08-22.682,4.078
						c-11.752,3.715-35.086,33.302-35.086,33.302c13.366,28.557,39.631,36.591,39.631,36.591l13.38-16.882l35.956-2.314
						C218.068,210.87,217.888,201.512,218.507,192.187z"/>
				</g>
			</g>
			<g>
				<g>
					<path style="fill:#2C2429;" d="M151.647,90.233c0,0-9.062-44.138,21.748-54.106c23.944-7.747,56.828-4.802,56.505,12.098
						c-0.323,16.9-3.948,30.945-18.899,44.538c-14.952,13.592-16.281,35.341-10.633,55.729c5.649,20.389,6.555,31.939-9.222,38.965
						c-22.289,9.926-32.759-17.453-45.296-3.523l-14.302,16.569c0,0-15.242-21.506,2.428-38.949
						C151.647,144.112,153.46,121.042,151.647,90.233z"/>
					<path style="fill:#1C171A;" d="M170.88,175.302c-14.199-4.568-22.382-15.132-26.501-27.791
						c-2.618,5.048-6.021,9.719-10.402,14.044c-17.67,17.443-2.428,38.949-2.428,38.949l14.302-16.569
						c12.536-13.93,23.007,13.449,45.296,3.523c9.278-4.132,12.782-9.831,12.95-17.969
						C196.081,178.22,182.55,179.056,170.88,175.302z"/>
				</g>
				<g>
					<path style="fill:#FFFFFF;" d="M216.182,126.557l34.395-1.732C250.577,124.825,236.805,140.784,216.182,126.557z"/>
					<g>
						<path style="fill:#D8533D;" d="M235.392,96.621l0.733,2.651l0.38,1.299c0.115,0.433,0.254,0.859,0.391,1.284
							c0.272,0.849,0.525,1.697,0.846,2.518c0.166,0.408,0.281,0.832,0.458,1.232l0.484,1.213l0.534,1.18
							c0.163,0.401,0.384,0.767,0.572,1.152c0.194,0.381,0.381,0.767,0.613,1.12l0.654,1.089l0.729,1.027
							c0.227,0.359,0.524,0.649,0.787,0.975c0.273,0.316,0.527,0.656,0.842,0.926c0.303,0.285,0.603,0.577,0.898,0.883l1.225,1.272
							l-1.37,0.581c-1.193,0.505-2.403,0.975-3.628,1.417c-1.236,0.421-2.468,0.849-3.762,1.158
							c1.003-0.873,2.068-1.627,3.128-2.388c1.072-0.74,2.158-1.452,3.262-2.129l-0.145,1.852c-0.401-0.277-0.797-0.567-1.19-0.865
							c-0.413-0.278-0.751-0.631-1.099-0.976c-0.34-0.351-0.725-0.673-1.005-1.071l-0.901-1.154l-0.771-1.231
							c-0.267-0.407-0.464-0.845-0.677-1.276c-0.448-0.854-0.763-1.756-1.09-2.648l-0.399-1.364
							c-0.131-0.454-0.22-0.917-0.316-1.378c-0.099-0.46-0.168-0.925-0.234-1.389c-0.07-0.463-0.144-0.924-0.165-1.393
							c-0.077-0.931-0.119-1.862-0.079-2.794C235.119,98.468,235.209,97.536,235.392,96.621z"/>
					</g>
					<g>
						<path style="fill:#1C171A;" d="M237.62,93.111c0,0,0.042-0.411,0.269-1.081c0.209-0.68,0.615-1.603,1.281-2.627
							c0.352-0.494,0.731-1.046,1.231-1.55c0.468-0.536,1.053-1.021,1.682-1.505c0.298-0.265,0.675-0.438,1.026-0.657
							c0.363-0.202,0.71-0.445,1.124-0.578c0.402-0.153,0.805-0.321,1.22-0.459c0.412-0.146,0.862-0.191,1.294-0.286
							c0.871-0.196,1.768-0.153,2.638-0.116c0.439-0.014,0.854,0.11,1.266,0.203c0.411,0.097,0.815,0.19,1.205,0.303
							c0.758,0.27,1.437,0.649,2.077,0.971c0.632,0.341,1.122,0.818,1.603,1.192c0.472,0.39,0.88,0.759,1.171,1.168
							c0.31,0.384,0.556,0.74,0.758,1.025c0.401,0.574,0.586,0.929,0.586,0.929s-0.418-0.085-1.073-0.28
							c-0.326-0.1-0.721-0.211-1.146-0.363c-0.415-0.173-0.914-0.285-1.438-0.409c-0.525-0.113-1.049-0.335-1.626-0.421
							c-0.578-0.073-1.159-0.213-1.75-0.294c-0.6,0.011-1.197-0.113-1.797-0.072c-0.598,0.066-1.204,0.013-1.793,0.183
							c-0.296,0.06-0.603,0.061-0.893,0.16c-0.289,0.1-0.587,0.17-0.882,0.252c-0.583,0.181-1.158,0.417-1.724,0.647
							c-0.551,0.269-1.116,0.5-1.624,0.801c-0.535,0.258-1.01,0.571-1.484,0.833c-0.915,0.562-1.722,1.063-2.286,1.435
							C237.952,92.895,237.62,93.111,237.62,93.111z"/>
					</g>
					<g>
						<path style="fill:#1C171A;" d="M226.745,93.111c0,0-0.487-0.236-1.319-0.597c-0.833-0.359-2.011-0.842-3.417-1.288
							c-2.806-0.917-6.497-1.62-10.058-1.051c-0.449,0.041-0.889,0.158-1.333,0.228c-0.436,0.12-0.88,0.205-1.313,0.328
							c-0.862,0.261-1.714,0.543-2.532,0.874c-0.819,0.329-1.601,0.698-2.353,1.057c-0.73,0.397-1.461,0.735-2.098,1.124
							c-0.655,0.362-1.267,0.7-1.794,1.03c-0.531,0.324-1.021,0.589-1.401,0.839c-0.777,0.48-1.266,0.731-1.266,0.731
							s0.222-0.487,0.688-1.299c0.227-0.412,0.525-0.896,0.918-1.414c0.192-0.265,0.397-0.548,0.613-0.846
							c0.24-0.279,0.492-0.572,0.756-0.877c0.523-0.622,1.182-1.208,1.879-1.841c0.373-0.29,0.756-0.588,1.147-0.893
							c0.398-0.302,0.845-0.553,1.282-0.84c0.897-0.535,1.88-1.019,2.93-1.404c0.526-0.186,1.068-0.356,1.617-0.503
							c0.559-0.109,1.113-0.263,1.684-0.329c2.277-0.324,4.621-0.132,6.652,0.478c2.045,0.582,3.763,1.555,5.08,2.528
							c1.314,0.99,2.24,1.987,2.817,2.733C226.506,92.621,226.745,93.111,226.745,93.111z"/>
					</g>
					<g>
						<path style="fill:#1C171A;" d="M242.827,104.23c0,0-0.007-0.267,0.059-0.712c0.067-0.444,0.195-1.076,0.481-1.789
							c0.277-0.72,0.685-1.536,1.363-2.321c0.331-0.394,0.744-0.78,1.257-1.108c0.505-0.332,1.142-0.606,1.873-0.673
							c0.727-0.062,1.482,0.106,2.082,0.425c0.575,0.328,1.053,0.741,1.376,1.17c0.18,0.212,0.329,0.422,0.451,0.64
							c0.133,0.214,0.254,0.421,0.341,0.633c0.205,0.413,0.329,0.821,0.435,1.194c0.127,0.364,0.164,0.721,0.22,1.026
							c0.063,0.302,0.064,0.581,0.078,0.804c0.021,0.449,0.001,0.711,0.001,0.711s-0.202-0.179-0.5-0.502
							c-0.283-0.313-0.688-0.761-1.173-1.298c-0.237-0.256-0.489-0.526-0.755-0.785c-0.129-0.138-0.26-0.267-0.403-0.384
							c-0.14-0.124-0.269-0.255-0.415-0.35c-0.274-0.241-0.566-0.364-0.81-0.488c-0.253-0.075-0.455-0.114-0.681-0.09
							c-0.443,0.016-1.107,0.356-1.717,0.812c-0.622,0.447-1.203,0.992-1.734,1.449c-0.536,0.487-0.984,0.892-1.296,1.176
							C243.033,104.063,242.827,104.23,242.827,104.23z"/>
					</g>
					<g>
						<path style="fill:#1C171A;" d="M212.138,106.863c0,0-0.007-0.267,0.059-0.712c0.067-0.444,0.195-1.076,0.481-1.789
							c0.277-0.72,0.685-1.536,1.363-2.321c0.331-0.394,0.744-0.78,1.257-1.108c0.505-0.332,1.142-0.606,1.873-0.673
							c0.727-0.062,1.482,0.106,2.082,0.425c0.576,0.328,1.053,0.74,1.376,1.17c0.18,0.212,0.329,0.422,0.451,0.64
							c0.133,0.214,0.254,0.421,0.341,0.633c0.205,0.414,0.329,0.821,0.435,1.194c0.127,0.365,0.164,0.721,0.22,1.026
							c0.063,0.302,0.064,0.581,0.078,0.804c0.021,0.449,0.001,0.711,0.001,0.711s-0.202-0.179-0.5-0.502
							c-0.283-0.313-0.688-0.761-1.173-1.297c-0.237-0.256-0.489-0.526-0.755-0.785c-0.129-0.138-0.26-0.267-0.403-0.384
							c-0.14-0.124-0.269-0.255-0.415-0.35c-0.274-0.241-0.566-0.364-0.81-0.488c-0.253-0.075-0.455-0.114-0.681-0.09
							c-0.443,0.016-1.107,0.356-1.717,0.812c-0.622,0.447-1.203,0.992-1.733,1.449c-0.537,0.487-0.984,0.892-1.296,1.176
							C212.345,106.696,212.138,106.863,212.138,106.863z"/>
					</g>
				</g>
			</g>
		</g>
	</g>
</g>
</svg>
